<mxfile host="65bd71144e">
    <diagram name="Seite-1" id="AyZmh6j_2HEn0DoN_k_r">
        <mxGraphModel dx="977" dy="910" grid="1" gridSize="10" guides="1" tooltips="1" connect="1" arrows="1" fold="1" page="1" pageScale="1" pageWidth="827" pageHeight="1169" math="0" shadow="0">
            <root>
                <mxCell id="0"/>
                <mxCell id="1" parent="0"/>
                <mxCell id="XHCcji0osZuezLN8mhuj-13" style="edgeStyle=orthogonalEdgeStyle;rounded=0;orthogonalLoop=1;jettySize=auto;html=1;exitX=0.5;exitY=0.5;exitDx=0;exitDy=0;exitPerimeter=0;entryX=0;entryY=0.5;entryDx=0;entryDy=0;" parent="1" source="XHCcji0osZuezLN8mhuj-1" target="XHCcji0osZuezLN8mhuj-4" edge="1">
                    <mxGeometry relative="1" as="geometry"/>
                </mxCell>
                <mxCell id="XHCcji0osZuezLN8mhuj-15" style="edgeStyle=orthogonalEdgeStyle;rounded=0;orthogonalLoop=1;jettySize=auto;html=1;exitX=0.5;exitY=0.5;exitDx=0;exitDy=0;exitPerimeter=0;entryX=0;entryY=0.5;entryDx=0;entryDy=0;" parent="1" source="XHCcji0osZuezLN8mhuj-1" target="XHCcji0osZuezLN8mhuj-5" edge="1">
                    <mxGeometry relative="1" as="geometry">
                        <Array as="points">
                            <mxPoint x="232" y="190"/>
                            <mxPoint x="232" y="295"/>
                        </Array>
                    </mxGeometry>
                </mxCell>
                <mxCell id="XHCcji0osZuezLN8mhuj-16" style="edgeStyle=orthogonalEdgeStyle;rounded=0;orthogonalLoop=1;jettySize=auto;html=1;exitX=0.5;exitY=0.5;exitDx=0;exitDy=0;exitPerimeter=0;entryX=0;entryY=0.5;entryDx=0;entryDy=0;" parent="1" source="XHCcji0osZuezLN8mhuj-1" target="XHCcji0osZuezLN8mhuj-6" edge="1">
                    <mxGeometry relative="1" as="geometry"/>
                </mxCell>
                <mxCell id="XHCcji0osZuezLN8mhuj-17" style="edgeStyle=orthogonalEdgeStyle;rounded=0;orthogonalLoop=1;jettySize=auto;html=1;exitX=0.5;exitY=0.5;exitDx=0;exitDy=0;exitPerimeter=0;entryX=0;entryY=0.5;entryDx=0;entryDy=0;" parent="1" source="XHCcji0osZuezLN8mhuj-1" target="XHCcji0osZuezLN8mhuj-7" edge="1">
                    <mxGeometry relative="1" as="geometry">
                        <Array as="points">
                            <mxPoint x="235" y="190"/>
                            <mxPoint x="235" y="465"/>
                        </Array>
                    </mxGeometry>
                </mxCell>
                <mxCell id="XHCcji0osZuezLN8mhuj-18" style="edgeStyle=orthogonalEdgeStyle;rounded=0;orthogonalLoop=1;jettySize=auto;html=1;exitX=0.5;exitY=0.5;exitDx=0;exitDy=0;exitPerimeter=0;" parent="1" source="XHCcji0osZuezLN8mhuj-1" target="XHCcji0osZuezLN8mhuj-3" edge="1">
                    <mxGeometry relative="1" as="geometry"/>
                </mxCell>
                <mxCell id="XHCcji0osZuezLN8mhuj-1" value="User" style="shape=umlActor;verticalLabelPosition=bottom;verticalAlign=top;html=1;" parent="1" vertex="1">
                    <mxGeometry x="90" y="160" width="30" height="60" as="geometry"/>
                </mxCell>
                <mxCell id="XHCcji0osZuezLN8mhuj-2" value="TodoListeApp&lt;br&gt;" style="shape=umlFrame;whiteSpace=wrap;html=1;pointerEvents=0;width=90;height=30;" parent="1" vertex="1">
                    <mxGeometry x="150" y="80" width="510" height="440" as="geometry"/>
                </mxCell>
                <mxCell id="XHCcji0osZuezLN8mhuj-3" value="view ToDo List" style="ellipse;whiteSpace=wrap;html=1;" parent="1" vertex="1">
                    <mxGeometry x="350" y="90" width="140" height="70" as="geometry"/>
                </mxCell>
                <mxCell id="XHCcji0osZuezLN8mhuj-4" value="create Task" style="ellipse;whiteSpace=wrap;html=1;" parent="1" vertex="1">
                    <mxGeometry x="350" y="170" width="140" height="70" as="geometry"/>
                </mxCell>
                <mxCell id="XHCcji0osZuezLN8mhuj-5" value="edit Task" style="ellipse;whiteSpace=wrap;html=1;" parent="1" vertex="1">
                    <mxGeometry x="344" y="260" width="140" height="70" as="geometry"/>
                </mxCell>
                <mxCell id="XHCcji0osZuezLN8mhuj-6" value="delete Task" style="ellipse;whiteSpace=wrap;html=1;" parent="1" vertex="1">
                    <mxGeometry x="350" y="340" width="140" height="70" as="geometry"/>
                </mxCell>
                <mxCell id="XHCcji0osZuezLN8mhuj-7" value="mark Task endet" style="ellipse;whiteSpace=wrap;html=1;" parent="1" vertex="1">
                    <mxGeometry x="350" y="430" width="140" height="70" as="geometry"/>
                </mxCell>
            </root>
        </mxGraphModel>
    </diagram>
</mxfile>